<svg id="Layer_1" data-name="Layer 1" xmlns="http://www.w3.org/2000/svg" viewBox="0 0 1200 1200"><defs><style>.cls-1{fill:#1f2937;}.cls-2{fill:#109488;}.cls-3{fill:#bcbec0;}.cls-4{fill:#fff;}</style></defs><ellipse class="cls-1" cx="599.97" cy="184.22" rx="160.27" ry="37.02"/><path class="cls-1" d="M983.9,432.16c-51.62-36.54-107.8-65-150.94-84.27A123.1,123.1,0,0,1,760.3,235.43v-51h-.08c-.49,20.35-72,36.82-160.25,36.82s-159.75-16.46-160.25-36.81h0v51A123.1,123.1,0,0,1,367,347.89c-43.14,19.28-99.32,47.73-150.94,84.26a75.29,75.29,0,0,0-20.41,101c48.76,79.13,134.22,238.66,179,445.35a94.09,94.09,0,0,0,91.86,74.35H733.43a94.07,94.07,0,0,0,91.85-74.34c44.81-206.69,130.27-366.23,179-445.36A75.27,75.27,0,0,0,983.9,432.16Z"/><path class="cls-2" d="M987.11,434.57q-1.7-1.35-3.48-2.61C932.08,395.52,876,367.13,833,347.89A123.1,123.1,0,0,1,760.3,235.43v-51h-.08c-.49,20.35-72,36.82-160.25,36.82s-159.76-16.47-160.25-36.81h0v51A123.1,123.1,0,0,1,367,347.89C324,367.13,267.92,395.52,216.37,432q-1.78,1.26-3.48,2.61c-21.68,17.26-29.65,46.59-21.62,73.12,1.54,5.08,3.36,9,5.45,11.6C263,600.39,337.79,692.91,386.1,832.94,417.63,924.35,503.31,986,600,986h0c96.69,0,182.37-61.61,213.9-153,48.31-140,123.07-232.55,189.38-313.65,2.09-2.56,3.91-6.52,5.45-11.6C1016.76,481.16,1008.79,451.83,987.11,434.57Z"/><polygon class="cls-3" points="361.46 334.6 380.78 340.5 362.98 392.31 311.2 374.4 318.46 355.55 361.46 334.6"/><rect class="cls-4" x="336.09" y="347.83" width="20.33" height="20.33" transform="translate(-105.04 568.68) rotate(-70.98)"/><polygon class="cls-3" points="838.54 334.6 819.22 340.5 837.02 392.31 888.8 374.4 881.54 355.55 838.54 334.6"/><rect class="cls-4" x="843.57" y="347.83" width="20.33" height="20.33" transform="translate(793.53 1281.8) rotate(-109.02)"/><polygon class="cls-3" points="796.93 405.3 847.96 442.9 810.36 493.94 759.33 456.33 796.93 405.3 796.93 405.3"/><polygon class="cls-1" points="847.96 442.9 810.36 493.94 759.33 456.33 847.96 442.9"/><rect class="cls-4" x="792.52" y="438.49" width="22.26" height="22.26" transform="translate(-35.05 829.86) rotate(-53.61)"/><polygon class="cls-3" points="403.07 405.3 352.04 442.9 389.64 493.94 440.67 456.33 403.07 405.3 403.07 405.3"/><polygon class="cls-1" points="352.04 442.9 389.64 493.94 440.67 456.33 352.04 442.9"/><rect class="cls-4" x="385.22" y="438.49" width="22.26" height="22.26" transform="translate(-189.45 322.78) rotate(-36.39)"/><polygon class="cls-3" points="724.4 483.31 766.91 514.2 750.67 564.17 698.13 564.17 681.89 514.2 724.4 483.31 724.4 483.31"/><polygon class="cls-1" points="745.38 498.55 766.91 514.2 750.67 564.17 698.13 564.17 745.38 498.55"/><polygon class="cls-4" points="724.4 504.49 702.04 520.74 710.58 547.03 738.22 547.03 746.76 520.74 724.4 504.49"/><polygon class="cls-3" points="475.6 483.31 518.11 514.2 501.87 564.17 449.33 564.17 433.09 514.2 475.6 483.31 475.6 483.31"/><polygon class="cls-1" points="496.57 498.55 518.11 514.2 501.87 564.17 449.33 564.17 496.57 498.55"/><polygon class="cls-4" points="475.6 504.49 453.24 520.74 461.78 547.03 489.42 547.03 497.96 520.74 475.6 504.49"/><polygon class="cls-3" points="630.95 540.54 569.05 540.54 538.1 594.15 569.05 647.75 630.95 647.75 661.9 594.15 630.95 540.54 630.95 540.54"/><polygon class="cls-1" points="630.95 540.54 569.05 647.75 630.95 647.75 661.9 594.15 630.95 540.54 630.95 540.54"/><polygon class="cls-4" points="618.12 562.76 636.24 594.15 618.12 625.53 581.88 625.53 563.76 594.15 581.88 562.76 618.12 562.76"/><path class="cls-3" d="M600,692s-68.75,71.25-68.75,133.27a68.75,68.75,0,1,0,137.5,0C668.75,763.23,600,692,600,692Z"/><path class="cls-1" d="M668.75,825.25C668.75,763.23,600,692,600,692V894A68.75,68.75,0,0,0,668.75,825.25Z"/><path class="cls-4" d="M600,730.38s-44.11,48.32-44.11,90.38c0,25.75,19.75,46.63,44.11,46.63s44.11-20.88,44.11-46.63c0-42.06-44.11-90.38-44.11-90.38Z"/></svg>